<?xml version="1.0" encoding="utf-8"?>
<!-- Generator: Adobe Illustrator 22.0.1, SVG Export Plug-In . SVG Version: 6.00 Build 0)  -->
<svg version="1.1" id="Layer_1" xmlns="http://www.w3.org/2000/svg" xmlns:xlink="http://www.w3.org/1999/xlink" x="0px" y="0px"
	 viewBox="0 0 240 80" style="enable-background:new 0 0 240 80;" xml:space="preserve">
<style type="text/css">
	.st0{fill:#AE285D;}
</style>
<g>
	<path id="path5" class="st0" d="M47.9,15.8c2.8,4.8,5.6,9.7,8.4,14.5c-4.5,7.9-9,16-13.6,23.8c-1.8,3.1-3.5,6-5.3,9.1
		c-5.8,0.1-11.5,0-17.2,0c0.2-0.4,0.3-0.8,0.5-1.2C29.7,46.7,38.8,31.3,47.9,15.8z"/>
	<path id="path7" class="st0" d="M172.7,27.7c3.2,5.9,6.3,11.8,9.5,17.7c-1.1,0-2.2-0.1-3.3,0c-0.7-1.3-1.4-2.6-2.1-4
		c-2.9-0.1-5.6,0-8.5,0c-0.7,1.4-1.4,2.6-2.2,4c-1.1,0-2.2,0-3.3,0C166.1,39.5,169.4,33.6,172.7,27.7 M169.7,39c1.9,0,3.9,0,5.8,0.1
		c-1-1.8-1.8-3.7-2.9-5.4C171.6,35.4,170.7,37.2,169.7,39z"/>
	<path id="path9" class="st0" d="M184.1,27.7c4.8,4.1,9.6,8.4,14.3,12.6c0.1-3.8,0-7.7,0.1-11.5c1,0,2,0.1,3.1,0.1
		c0,5.9,0,11.7,0,17.7c-3.1-2.6-6.2-5.4-9.3-8.1c-1.7-1.5-3.5-3-5.1-4.5c-0.1,3.9,0,7.7-0.1,11.6c-1,0-2,0-3.1,0
		C184.1,39.5,184.1,33.6,184.1,27.7z"/>
	<path id="path11" class="st0" d="M82.8,45.5c3.3-5.9,6.5-11.9,9.9-17.7c3.1,5.9,6.3,11.8,9.5,17.7c-1.2,0-2.2,0-3.4,0
		c-0.7-1.3-1.4-2.6-2-4c-2.9-0.1-5.6,0-8.5,0c-0.7,1.4-1.4,2.7-2.2,4C85.1,45.5,84,45.5,82.8,45.5 M89.8,39c1.9,0,3.9,0,5.8,0
		c-1-1.8-1.8-3.6-2.9-5.4C91.7,35.4,90.7,37.2,89.8,39z"/>
	<path id="path13" class="st0" d="M129.9,29.3c1.6-0.8,3.5-0.9,5.2-0.5c1.5,0.3,2.7,1.4,3.7,2.6c-0.8,0.4-1.6,0.8-2.4,1.3
		c-1.1-1.7-3.7-2.2-5.2-1c-0.8,0.6-0.7,2.1,0.2,2.5c2.1,1.2,4.7,1.4,6.6,3.1c1.9,1.6,1.8,4.9,0.1,6.6c-1.9,1.9-4.9,2.4-7.5,1.6
		c-2.1-0.5-3.7-2.5-4-4.6c1-0.2,2-0.4,3.1-0.5c0.1,1,0.5,2.1,1.4,2.6c1.5,0.8,3.7,0.6,4.7-0.9c0.7-1,0.5-2.5-0.5-3.3
		c-2.1-1.4-4.8-1.5-6.7-3.3c-1-0.8-1.4-2.2-1.1-3.5C127.8,30.8,128.9,29.8,129.9,29.3z"/>
	<path id="path15" class="st0" d="M103.3,28.9c1.2-0.1,2.3-0.1,3.5-0.1c1.2,1.8,2.5,3.7,3.7,5.6c1.3-1.8,2.6-3.7,3.9-5.6
		c1.2-0.1,2.4-0.1,3.6,0c-1.9,2.6-3.8,5.3-5.7,7.9c2,2.9,4.1,5.8,6,8.8c-1.2,0-2.3,0-3.4,0c-1.4-2.1-2.9-4.2-4.3-6.3
		c-1.5,2.1-3,4.2-4.5,6.3c-1.2,0-2.3,0-3.5,0c2-2.9,4.1-5.8,6.2-8.7C106.9,34.2,105.1,31.5,103.3,28.9z"/>
	<path id="path17" class="st0" d="M120.8,28.8c1,0,2,0,3.1,0c0,5.6,0,11.1,0,16.7c-1,0-2.1,0-3.1,0
		C120.8,39.9,120.8,34.4,120.8,28.8z"/>
	<path id="path19" class="st0" d="M150.9,28.8c2.6,0.1,5.5-0.3,7.9,1c2.4,1.3,2.9,5,0.7,6.7c1.4,0.5,2.7,1.6,3.1,3.1
		c0.6,1.8-0.5,3.9-2,4.9c-2.9,1.6-6.4,0.9-9.6,1.1C150.9,39.9,150.9,34.4,150.9,28.8 M154,31.2c0,1.6,0,3.2,0,4.8
		c1.2-0.1,2.4,0,3.4-0.7c1-0.9,1-2.7-0.1-3.5C156.3,31.2,155.1,31.2,154,31.2 M154,38.2c0,1.6,0,3.3,0,4.9c1.6-0.1,3.2,0.2,4.6-0.5
		c1.3-0.6,1.5-2.6,0.3-3.5C157.6,37.9,155.7,38.2,154,38.2z"/>
	<path id="path21" class="st0" d="M205.2,28.8c1,0,2,0,3.1,0c0,2.2,0,4.4,0,6.6c2.5-2.2,5.1-4.4,7.7-6.6c1.4,0,2.8,0,4.2,0
		c-3.1,2.5-6,5-9,7.5c2.9,3.1,6,6.1,9,9.1c-1.4,0-2.8,0.1-4.1-0.1c-2.4-2.4-4.8-4.9-7.1-7.3c-0.2,0.2-0.3,0.5-0.5,0.7
		c-0.1,2.2,0,4.5-0.1,6.7c-1,0-2,0-3.1,0C205.1,39.9,205.2,34.4,205.2,28.8z"/>
	<path id="path23" class="st0" d="M47.9,45.4c5.8,0,11.5-0.1,17.3,0.1c3.5,6,7,11.9,10.4,17.9c-5.8,0-11.5,0-17.2,0
		C54.8,57.3,51.2,51.4,47.9,45.4z"/>
</g>
</svg>
