<svg version="1.1" xmlns="http://www.w3.org/2000/svg" x="0px" y="0px"
     viewBox="0 0 484 120" style="enable-background:new 0 0 484 120;" xml:space="preserve">
<style type="text/css">
    .st0{fill:url(#SVGID_1_);}
    .st1{fill:#282828;}
</style>
<g>

        <linearGradient id="SVGID_1_" gradientUnits="userSpaceOnUse" x1="28.8936" y1="113.901" x2="110.6416" y2="32.153" gradientTransform="matrix(1 0 0 -1 0 120)">
        <stop  offset="0" style="stop-color:#FFB300"/>
        <stop  offset="1" style="stop-color:#FF7733"/>
    </linearGradient>
    <path class="st0" d="M116.8,14.8C99.2,7.2,81.5,3.3,64.2,3.3S27.4,7.5,11.8,14.6c-4.7,2.1-5.9,4.1-5.4,9.1
        C7.8,39.2,14.1,58.5,22,73c11.5,21.2,31.3,37.7,37.3,41.8c3.5,2.4,5.8,2.7,9.6,0.3c8.6-5.6,22.3-19.3,30.2-30.6
        C90.3,90.1,74,98.7,64.2,102c-11.6-8.3-22.9-22.1-28.3-31.4c-6.2-10.7-13.1-24.4-15.8-45c9.7-4.1,25-8.9,44.1-8.9
        c15.1,0,29.9,3,44,8.9c-0.2,1.4-0.4,2.8-0.6,4.2c-3.4,16-13.5,30.2-27.5,38.8c-3.8,2.4-8,4.3-12.3,5.8c-2.2-2.3-4.6-5.1-6.8-8
        c6.6-1.8,15.5-5.8,22-12.1c5-4.9,8.7-9.8,10.9-14.7c2-4.6,0.1-8.6-4.9-9.9c-7.7-2-16.9-3-24.9-3c-7.6,0-20.5,1.8-25.7,3.2
        c-4.9,1.3-6.6,4.3-5.4,9.5c2.4,10.3,7.2,20.2,12.5,28.1c5.2,7.8,9.3,13,15.1,18.5c2.4,2.3,5,3,8.3,1.9c15.4-4.9,26.5-12.3,37.1-25
        c9.1-10.9,14.9-26.2,15.9-40.5C122,18.3,120.2,16.2,116.8,14.8z M64.2,39.9c4.7,0,9.3,0.5,13.4,1.1c-3,3.7-6.8,6.8-11,9.1
        c-4.1,2.3-8.5,3.7-13.2,4.3c-2-3.3-4.1-8.1-5.8-13C51.9,40.5,59,39.9,64.2,39.9z"/>
    <g>
        <path class="st1" d="M167.2,88.5c-18.7,0-28.6-12-28.6-30.6c0-17.7,10.6-30.2,28.8-30.2c19.5,0,27.8,12.9,27.8,29.8V62h-39.3
            c0.8,10.4,4.6,14.9,11.9,14.9c6.8,0,9-3.3,10-6.8h16.8C192.9,81.3,182.9,88.5,167.2,88.5z M177.7,51.4
            c-0.5-8.2-3.8-13.1-10.3-13.1c-7,0-10.7,5-11.6,13.8h21.8v-0.7H177.7z"/>
        <path class="st1" d="M200.7,29.1h48.4v11.1l-28.9,34.1h29.5v12.6h-50V75.7l28.9-34.2h-27.9L200.7,29.1L200.7,29.1z"/>
        <path class="st1" d="M282.4,88.5c-18.7,0-28.6-12-28.6-30.6c0-17.7,10.6-30.2,28.8-30.2c19.5,0,27.8,12.9,27.8,29.8V62h-39.3
            c0.8,10.4,4.6,14.9,11.9,14.9c6.8,0,9-3.3,10-6.8h16.8C308.1,81.3,298,88.5,282.4,88.5z M292.8,51.4c-0.5-8.2-3.8-13.1-10.3-13.1
            c-7,0-10.7,5-11.6,13.8h21.8v-0.7H292.8z"/>
        <path class="st1" d="M338.1,12.7V29h13v11.9h-12.7v25.6c0,5.8,2.2,8.4,8,8.4c2.1,0,4.9-0.4,4.9-0.4V87c-2.3,0.2-6.6,0.6-11.4,0.6
            c-11.3,0-18.4-4.9-18.4-17.9V40.9H313V29.2h1.9c7.3,0,8.6-1.5,8.6-12v-4.4h14.6V12.7z"/>
        <path class="st1" d="M358.1,46.2c0.6-11.6,9.8-18.5,24.9-18.5c18.7,0,25.2,7.7,25.2,23.1v20c0,3.1,1,4.3,4.6,4.3V87h-5.7
            c-8.3,0-12.3-1.6-14.1-8h-0.2c-3.7,5.4-9.3,8.5-17.5,8.5c-12.1,0-19.7-6.4-19.7-17.2c0-6.7,3-11.4,8.7-14.5
            c6.2-3.2,14.9-3.8,27.2-4.3v-3.1c0-6.4-2.7-9.7-8.5-9.7c-5.6,0-8.3,3.1-8.5,7.5C374.5,46.2,358.1,46.2,358.1,46.2z M391.6,62.5
            v-1.8c-9.1,0.5-13.6,1.3-16.3,3.1c-1.9,1.3-2.8,3.5-2.8,5.8c0,4.2,2.9,7.1,7.7,7.1C386.1,76.8,391.6,72.2,391.6,62.5z"/>
        <path class="st1" d="M419.5,29.1H436v9.4h0.2c2.7-5.2,8.9-10.7,18.3-10.7c13.4,0,23.2,8.6,23.2,30c0,19.3-9.8,30.6-24.8,30.6
            c-8.3,0-13.5-4.1-15.9-8.6h-0.3v27.5h-17.2V29.1z M448.3,76.9c7.6,0,11.9-6.5,11.9-18.9c0-12.2-3.8-18.5-12-18.5
            c-6.8,0-11.8,5.7-11.8,15.3v6.3C436.5,70.2,440.4,76.9,448.3,76.9z"/>
    </g>
</g>
</svg>
