<?xml version="1.0" encoding="utf-8"?>
<!-- Generator: Adobe Illustrator 22.0.1, SVG Export Plug-In . SVG Version: 6.00 Build 0)  -->
<svg version="1.1"
	 id="svg11053" inkscape:version="0.47 r22583" sodipodi:docname="New document 3" xmlns:cc="http://creativecommons.org/ns#" xmlns:dc="http://purl.org/dc/elements/1.1/" xmlns:inkscape="http://www.inkscape.org/namespaces/inkscape" xmlns:rdf="http://www.w3.org/1999/02/22-rdf-syntax-ns#" xmlns:sodipodi="http://sodipodi.sourceforge.net/DTD/sodipodi-0.dtd" xmlns:svg="http://www.w3.org/2000/svg"
	 xmlns="http://www.w3.org/2000/svg" xmlns:xlink="http://www.w3.org/1999/xlink" x="0px" y="0px" viewBox="0 0 240 80"
	 style="enable-background:new 0 0 240 80;" xml:space="preserve">
<style type="text/css">
	.st0{fill:#004C8F;}
	.st1{fill:#FFFFFF;}
	.st2{fill:#ED232A;}
</style>
<defs>
	
	
		<inkscape:perspective  id="perspective11061" inkscape:persp3d-origin="372.04724 : 350.78739 : 1" inkscape:vp_x="0 : 526.18109 : 1" inkscape:vp_y="0 : 1000 : 0" inkscape:vp_z="744.09448 : 526.18109 : 1" sodipodi:type="inkscape:persp3d">
		</inkscape:perspective>
	
		<inkscape:perspective  id="perspective11033" inkscape:persp3d-origin="0.5 : 0.33333333 : 1" inkscape:vp_x="0 : 0.5 : 1" inkscape:vp_y="0 : 1000 : 0" inkscape:vp_z="1 : 0.5 : 1" sodipodi:type="inkscape:persp3d">
		</inkscape:perspective>
</defs>
<sodipodi:namedview  bordercolor="#666666" borderopacity="1.0" id="base" inkscape:current-layer="layer1" inkscape:cx="149.08562" inkscape:cy="8.2254134" inkscape:document-units="px" inkscape:pageopacity="0.0" inkscape:pageshadow="2" inkscape:window-height="750" inkscape:window-maximized="1" inkscape:window-width="1280" inkscape:window-x="-8" inkscape:window-y="-8" inkscape:zoom="2.8" pagecolor="#ffffff" showgrid="false">
	</sodipodi:namedview>
<path id="path1556" class="st0" d="M10.1,21.7h220v36.7h-220L10.1,21.7L10.1,21.7z"/>
<path id="path1560" class="st1" d="M58.5,48.7V31.3h5.7v5.9h5.3v-5.9h5.7v17.3h-5.7v-6.7h-5.3v6.7H58.5"/>
<path id="path1562" class="st1" d="M84.3,35.6h1.5c1.1,0,1.8,0.1,2.3,0.3c0.4,0.2,0.7,0.4,0.9,0.8c0.2,0.4,0.4,0.8,0.6,1.4
	c0.1,0.6,0.2,1.1,0.2,1.8c0,1-0.1,1.9-0.4,2.5c-0.3,0.7-0.7,1.2-1.2,1.5c-0.5,0.3-1.3,0.5-2.4,0.5l-1.4,0V35.6z M86.5,48.7
	L86.5,48.7c1.3,0,2.5-0.1,3.4-0.4c0.9-0.2,1.7-0.5,2.2-0.9c0.6-0.4,1.1-0.9,1.6-1.5c0.5-0.7,0.9-1.5,1.2-2.5c0.3-1,0.5-2.2,0.5-3.5
	c0-1.9-0.4-3.5-1.1-4.9c-0.7-1.3-1.8-2.3-3.1-2.8c-1.3-0.6-2.8-0.8-4.6-0.8h-7.9v17.3L86.5,48.7"/>
<path id="path1564" class="st1" d="M98,48.7V31.3h13.5v4.3h-7.9v2.8h6.3v4.2h-6.3v6.1L98,48.7"/>
<path id="path1566" class="st1" d="M130.7,38h-5.4c-0.1-0.9-0.4-1.5-0.9-2c-0.5-0.5-1.2-0.7-2-0.7c-1,0-1.8,0.4-2.5,1.2
	c-0.6,0.8-1,2.1-1,3.8c0,1.2,0.1,2.1,0.4,2.8c0.3,0.6,0.7,1.1,1.1,1.4c0.5,0.3,1.1,0.5,1.8,0.5c0.9,0,1.6-0.2,2.1-0.7
	c0.5-0.5,0.8-1.2,0.9-2.1h5.5c-0.1,1.1-0.3,2-0.6,2.7c-0.3,0.7-0.8,1.5-1.6,2.2c-0.7,0.7-1.6,1.3-2.6,1.7c-1,0.4-2.2,0.6-3.5,0.6
	c-1.3,0-2.5-0.2-3.7-0.6c-1.1-0.4-2.1-1-2.8-1.7c-0.8-0.7-1.4-1.6-1.8-2.5c-0.6-1.3-0.9-2.7-0.9-4.3c0-1.3,0.2-2.6,0.7-3.8
	c0.4-1.2,1-2.1,1.8-2.9c0.8-0.8,1.6-1.4,2.6-1.8c1.2-0.5,2.5-0.8,4-0.8c1.3,0,2.4,0.2,3.5,0.6c1.1,0.4,2,0.9,2.7,1.6
	c0.7,0.7,1.3,1.6,1.6,2.5C130.4,36.2,130.6,37,130.7,38"/>
<path id="path1568" class="st1" d="M148.9,35.2c0.8,0,1.3,0,1.6,0.1c0.3,0.1,0.6,0.3,0.8,0.5c0.2,0.3,0.3,0.6,0.3,0.9
	c0,0.4-0.2,0.8-0.5,1.1c-0.4,0.3-1,0.4-1.9,0.4h-2.1v-3.1H148.9L148.9,35.2z M150.4,48.7L150.4,48.7c1.4,0,2.3-0.1,2.9-0.2
	c0.5-0.1,1.1-0.3,1.7-0.6c0.6-0.3,1-0.6,1.3-0.9c0.4-0.4,0.8-0.9,1-1.5c0.2-0.6,0.4-1.3,0.4-2c0-1-0.3-1.9-0.8-2.6
	c-0.5-0.7-1.2-1.2-2.1-1.4c1.5-0.9,2.3-2.2,2.3-3.7c0-1.5-0.7-2.7-2-3.5c-1-0.6-2.6-0.9-4.7-0.9h-8.6v17.3H150.4z M149.5,41.4
	L149.5,41.4c1.1,0,1.9,0.1,2.2,0.4c0.3,0.3,0.5,0.7,0.5,1.2c0,0.5-0.2,0.9-0.6,1.2c-0.4,0.3-1.1,0.4-2.2,0.4h-2.3v-3.3L149.5,41.4"
	/>
<path id="path1570" class="st1" d="M170.1,42.8h-3.6l1.8-6.3L170.1,42.8z M164.8,48.7L164.8,48.7l0.7-2.3h5.7l0.7,2.3h5.7l-6.2-17.3
	h-5.8l-6.2,17.3H164.8"/>
<path id="path1572" class="st1" d="M179.8,48.7V31.3h5.3l6,9.3v-9.3h5.5v17.3h-5.4l-5.9-9.1v9.1H179.8"/>
<path id="path1574" class="st1" d="M200.4,48.7V31.3h5.5v5.7l5.2-5.7h6.7l-6.4,6.5l7,10.8h-6.8l-4.2-6.9l-1.5,1.5v5.4L200.4,48.7"/>
<path id="path1576" class="st2" d="M10.1,21.7h36.7v36.7H10.1V21.7z"/>
<path id="path1578" class="st1" d="M16.6,28.1h23.8v23.8H16.6V28.1z"/>
<path id="path1580" class="st1" d="M26.6,21.7h3.7v36.7h-3.7V21.7z"/>
<path id="path1582" class="st1" d="M10.1,38.2h36.7v3.7H10.1V38.2z"/>
<path id="path1584" class="st0" d="M23,34.5h11v11H23V34.5z"/>
</svg>
